<?xml version="1.0" standalone="yes"?>
<!-- SVG graphic -->
<svg xmlns='http://www.w3.org/2000/svg' xmlns:xlink='http://www.w3.org/1999/xlink'
width="180px" height="180px" preserveAspectRatio="xMinYMin meet" viewBox="0 0 180 180" version="1.1">
<rect x="5" y="0" width="2.5" height="2.5" fill="rgb(157,0,97)" tooltip="enable"><title>(1,0 130)</title></rect><rect x="10" y="5" width="2.5" height="2.5" fill="rgb(99,0,155)" tooltip="enable"><title>(2,1 82)</title></rect><rect x="15" y="10" width="2.5" height="2.5" fill="rgb(221,0,33)" tooltip="enable"><title>(3,2 183)</title></rect><rect x="20" y="15" width="2.5" height="2.5" fill="rgb(88,0,166)" tooltip="enable"><title>(4,3 73)</title></rect><rect x="25" y="20" width="2.5" height="2.5" fill="rgb(218,0,36)" tooltip="enable"><title>(5,4 181)</title></rect><rect x="30" y="25" width="2.5" height="2.5" fill="rgb(125,0,129)" tooltip="enable"><title>(6,5 104)</title></rect><rect x="35" y="30" width="2.5" height="2.5" fill="rgb(118,0,136)" tooltip="enable"><title>(7,6 98)</title></rect><rect x="40" y="35" width="2.5" height="2.5" fill="rgb(124,0,130)" tooltip="enable"><title>(8,7 103)</title></rect><rect x="45" y="40" width="2.5" height="2.5" fill="rgb(131,0,123)" tooltip="enable"><title>(9,8 109)</title></rect><rect x="50" y="45" width="2.5" height="2.5" fill="rgb(114,0,140)" tooltip="enable"><title>(10,9 95)</title></rect><rect x="55" y="50" width="2.5" height="2.5" fill="rgb(116,0,138)" tooltip="enable"><title>(11,10 96)</title></rect><rect x="60" y="55" width="2.5" height="2.5" fill="rgb(112,0,142)" tooltip="enable"><title>(12,11 93)</title></rect><rect x="65" y="60" width="2.5" height="2.5" fill="rgb(113,0,141)" tooltip="enable"><title>(13,12 94)</title></rect><rect x="70" y="65" width="2.5" height="2.5" fill="rgb(119,0,135)" tooltip="enable"><title>(14,13 99)</title></rect><rect x="75" y="70" width="2.5" height="2.5" fill="rgb(102,0,152)" tooltip="enable"><title>(15,14 85)</title></rect><rect x="80" y="75" width="2.5" height="2.5" fill="rgb(106,0,148)" tooltip="enable"><title>(16,15 88)</title></rect><rect x="85" y="80" width="2.5" height="2.5" fill="rgb(101,0,153)" tooltip="enable"><title>(17,16 84)</title></rect><rect x="90" y="85" width="2.5" height="2.5" fill="rgb(114,0,140)" tooltip="enable"><title>(18,17 95)</title></rect><rect x="95" y="90" width="2.5" height="2.5" fill="rgb(124,0,130)" tooltip="enable"><title>(19,18 103)</title></rect><rect x="100" y="95" width="2.5" height="2.5" fill="rgb(244,0,10)" tooltip="enable"><title>(20,19 202)</title></rect><rect x="105" y="100" width="2.5" height="2.5" fill="rgb(225,0,29)" tooltip="enable"><title>(21,20 187)</title></rect><rect x="110" y="105" width="2.5" height="2.5" fill="rgb(128,0,126)" tooltip="enable"><title>(22,21 106)</title></rect><rect x="115" y="110" width="2.5" height="2.5" fill="rgb(255,0,0)" tooltip="enable"><title>(23,22 211)</title></rect><rect x="120" y="115" width="2.5" height="2.5" fill="rgb(120,0,134)" tooltip="enable"><title>(24,23 100)</title></rect><rect x="125" y="120" width="2.5" height="2.5" fill="rgb(122,0,132)" tooltip="enable"><title>(25,24 101)</title></rect><rect x="130" y="125" width="2.5" height="2.5" fill="rgb(128,0,126)" tooltip="enable"><title>(26,25 106)</title></rect><rect x="135" y="130" width="2.5" height="2.5" fill="rgb(141,0,113)" tooltip="enable"><title>(27,26 117)</title></rect><rect x="140" y="135" width="2.5" height="2.5" fill="rgb(143,0,111)" tooltip="enable"><title>(28,27 119)</title></rect><rect x="145" y="140" width="2.5" height="2.5" fill="rgb(138,0,116)" tooltip="enable"><title>(29,28 115)</title></rect><rect x="150" y="145" width="2.5" height="2.5" fill="rgb(112,0,142)" tooltip="enable"><title>(30,29 93)</title></rect><rect x="155" y="150" width="2.5" height="2.5" fill="rgb(122,0,132)" tooltip="enable"><title>(31,30 101)</title></rect><rect x="160" y="155" width="2.5" height="2.5" fill="rgb(165,0,89)" tooltip="enable"><title>(32,31 137)</title></rect><text x="170" y="5" font-size="5" fill="black">0</text>
<text x="170" y="160" font-size="5" fill="black">33</text>
<polyline points="170,10,170,155" stroke="black" stroke-width="1" fill="none"/>
<text x="5" y="170" font-size="5" fill="black">0</text>
<text x="160" y="170" font-size="5" fill="black">33</text>
<polyline points="10,170,155,170" stroke="black" stroke-width="1" fill="none"/>
</svg>