<?xml version="1.0" standalone="yes"?>
<!-- SVG graphic -->
<svg xmlns='http://www.w3.org/2000/svg' xmlns:xlink='http://www.w3.org/1999/xlink'
width="180px" height="180px" preserveAspectRatio="xMinYMin meet" viewBox="0 0 180 180" version="1.1">
<rect x="5" y="0" width="2.5" height="2.5" fill="rgb(207,0,47)" tooltip="enable"><title>(1,0 261)</title></rect><rect x="10" y="5" width="2.5" height="2.5" fill="rgb(185,0,69)" tooltip="enable"><title>(2,1 233)</title></rect><rect x="15" y="10" width="2.5" height="2.5" fill="rgb(160,0,94)" tooltip="enable"><title>(3,2 202)</title></rect><rect x="20" y="15" width="2.5" height="2.5" fill="rgb(149,0,105)" tooltip="enable"><title>(4,3 188)</title></rect><rect x="25" y="20" width="2.5" height="2.5" fill="rgb(155,0,99)" tooltip="enable"><title>(5,4 195)</title></rect><rect x="30" y="25" width="2.5" height="2.5" fill="rgb(180,0,74)" tooltip="enable"><title>(6,5 226)</title></rect><rect x="35" y="30" width="2.5" height="2.5" fill="rgb(180,0,74)" tooltip="enable"><title>(7,6 226)</title></rect><rect x="40" y="35" width="2.5" height="2.5" fill="rgb(173,0,81)" tooltip="enable"><title>(8,7 218)</title></rect><rect x="45" y="40" width="2.5" height="2.5" fill="rgb(188,0,66)" tooltip="enable"><title>(9,8 237)</title></rect><rect x="50" y="45" width="2.5" height="2.5" fill="rgb(184,0,70)" tooltip="enable"><title>(10,9 232)</title></rect><rect x="55" y="50" width="2.5" height="2.5" fill="rgb(182,0,72)" tooltip="enable"><title>(11,10 229)</title></rect><rect x="60" y="55" width="2.5" height="2.5" fill="rgb(151,0,103)" tooltip="enable"><title>(12,11 190)</title></rect><rect x="65" y="60" width="2.5" height="2.5" fill="rgb(143,0,111)" tooltip="enable"><title>(13,12 180)</title></rect><rect x="70" y="65" width="2.5" height="2.5" fill="rgb(152,0,102)" tooltip="enable"><title>(14,13 191)</title></rect><rect x="75" y="70" width="2.5" height="2.5" fill="rgb(137,0,117)" tooltip="enable"><title>(15,14 172)</title></rect><rect x="80" y="75" width="2.5" height="2.5" fill="rgb(145,0,109)" tooltip="enable"><title>(16,15 182)</title></rect><rect x="85" y="80" width="2.5" height="2.5" fill="rgb(125,0,129)" tooltip="enable"><title>(17,16 157)</title></rect><rect x="90" y="85" width="2.5" height="2.5" fill="rgb(148,0,106)" tooltip="enable"><title>(18,17 186)</title></rect><rect x="95" y="90" width="2.5" height="2.5" fill="rgb(151,0,103)" tooltip="enable"><title>(19,18 190)</title></rect><rect x="100" y="95" width="2.5" height="2.5" fill="rgb(147,0,107)" tooltip="enable"><title>(20,19 185)</title></rect><rect x="105" y="100" width="2.5" height="2.5" fill="rgb(154,0,100)" tooltip="enable"><title>(21,20 194)</title></rect><rect x="110" y="105" width="2.5" height="2.5" fill="rgb(154,0,100)" tooltip="enable"><title>(22,21 194)</title></rect><rect x="115" y="110" width="2.5" height="2.5" fill="rgb(154,0,100)" tooltip="enable"><title>(23,22 194)</title></rect><rect x="120" y="115" width="2.5" height="2.5" fill="rgb(163,0,91)" tooltip="enable"><title>(24,23 205)</title></rect><rect x="125" y="120" width="2.5" height="2.5" fill="rgb(176,0,78)" tooltip="enable"><title>(25,24 221)</title></rect><rect x="130" y="125" width="2.5" height="2.5" fill="rgb(169,0,85)" tooltip="enable"><title>(26,25 213)</title></rect><rect x="135" y="130" width="2.5" height="2.5" fill="rgb(168,0,86)" tooltip="enable"><title>(27,26 211)</title></rect><rect x="140" y="135" width="2.5" height="2.5" fill="rgb(183,0,71)" tooltip="enable"><title>(28,27 230)</title></rect><rect x="145" y="140" width="2.5" height="2.5" fill="rgb(196,0,58)" tooltip="enable"><title>(29,28 246)</title></rect><rect x="150" y="145" width="2.5" height="2.5" fill="rgb(184,0,70)" tooltip="enable"><title>(30,29 232)</title></rect><rect x="155" y="150" width="2.5" height="2.5" fill="rgb(215,0,39)" tooltip="enable"><title>(31,30 270)</title></rect><rect x="160" y="155" width="2.5" height="2.5" fill="rgb(255,0,0)" tooltip="enable"><title>(32,31 320)</title></rect><text x="170" y="5" font-size="5" fill="black">0</text>
<text x="170" y="160" font-size="5" fill="black">33</text>
<polyline points="170,10,170,155" stroke="black" stroke-width="1" fill="none"/>
<text x="5" y="170" font-size="5" fill="black">0</text>
<text x="160" y="170" font-size="5" fill="black">33</text>
<polyline points="10,170,155,170" stroke="black" stroke-width="1" fill="none"/>
</svg>